# xmcd
#
# Track frame offsets:
#	150
#	16784
#	33300
#	53965
#	77964
#	86585
#	103792
#	127082
#	144356
#	168562
#
# Disc length: 2393 seconds
# Revision: 0
# Processed by: cddbd v1.5.2PL0 Copyright (c) Steve Scherf et al.
# Submitted via: dBpowerAMP V12.0
#
DISCID=8009570a
DTITLE=Stan Webb - Broken Glass
DYEAR=2006
DGENRE=Rock T-Z
TTITLE0=Standing on the Border
TTITLE1=It's Alright
TTITLE2=Keep Your Love
TTITLE3=Can't Keep You Satisfied
TTITLE4=Jersey Lightning
TTITLE5=It's Evil
TTITLE6=Ain't No Magic
TTITLE7=Crying Smiling
TTITLE8=Take the Water
TTITLE9=Broken Glass
EXTD=
EXTT0=
EXTT1=
EXTT2=
EXTT3=
EXTT4=
EXTT5=
EXTT6=
EXTT7=
EXTT8=
EXTT9=
PLAYORDER=
